<mxfile host="app.diagrams.net" modified="2024-02-28T10:11:29.340Z" agent="Mozilla/5.0 (Macintosh; Intel Mac OS X 10_15_7) AppleWebKit/537.36 (KHTML, like Gecko) Chrome/122.0.0.0 Safari/537.36" etag="lxzvjT7ogXXHbLEipSIu" version="23.1.7" type="github">
  <diagram name="第 1 页" id="TJExeLHt3U3KNy0eatjh">
    <mxGraphModel dx="1026" dy="663" grid="1" gridSize="10" guides="1" tooltips="1" connect="1" arrows="1" fold="1" page="1" pageScale="1" pageWidth="827" pageHeight="1169" math="0" shadow="0">
      <root>
        <mxCell id="0" />
        <mxCell id="1" parent="0" />
        <mxCell id="NyRurbZEW1F-XB1ejXOH-38" value="" style="rounded=0;whiteSpace=wrap;html=1;fillColor=#f8cecc;strokeColor=#b85450;" vertex="1" parent="1">
          <mxGeometry x="1181" y="20" width="759" height="640" as="geometry" />
        </mxCell>
        <mxCell id="NyRurbZEW1F-XB1ejXOH-14" value="" style="rounded=0;whiteSpace=wrap;html=1;fillColor=#dae8fc;strokeColor=#6c8ebf;" vertex="1" parent="1">
          <mxGeometry x="620" y="20" width="470" height="640" as="geometry" />
        </mxCell>
        <mxCell id="NyRurbZEW1F-XB1ejXOH-4" style="edgeStyle=orthogonalEdgeStyle;rounded=0;orthogonalLoop=1;jettySize=auto;html=1;entryX=0.5;entryY=0;entryDx=0;entryDy=0;" edge="1" parent="1" source="NyRurbZEW1F-XB1ejXOH-1" target="NyRurbZEW1F-XB1ejXOH-3">
          <mxGeometry relative="1" as="geometry" />
        </mxCell>
        <mxCell id="NyRurbZEW1F-XB1ejXOH-1" value="mq" style="shape=cylinder3;whiteSpace=wrap;html=1;boundedLbl=1;backgroundOutline=1;size=15;" vertex="1" parent="1">
          <mxGeometry x="720" y="40" width="60" height="80" as="geometry" />
        </mxCell>
        <mxCell id="NyRurbZEW1F-XB1ejXOH-2" value="topic:new-model-order-split-topic" style="text;html=1;align=center;verticalAlign=middle;whiteSpace=wrap;rounded=0;" vertex="1" parent="1">
          <mxGeometry x="780" y="75" width="220" height="10" as="geometry" />
        </mxCell>
        <mxCell id="NyRurbZEW1F-XB1ejXOH-6" style="edgeStyle=orthogonalEdgeStyle;rounded=0;orthogonalLoop=1;jettySize=auto;html=1;exitX=0.5;exitY=1;exitDx=0;exitDy=0;" edge="1" parent="1" source="NyRurbZEW1F-XB1ejXOH-3" target="NyRurbZEW1F-XB1ejXOH-5">
          <mxGeometry relative="1" as="geometry" />
        </mxCell>
        <mxCell id="NyRurbZEW1F-XB1ejXOH-15" value="否" style="edgeLabel;html=1;align=center;verticalAlign=middle;resizable=0;points=[];" vertex="1" connectable="0" parent="NyRurbZEW1F-XB1ejXOH-6">
          <mxGeometry x="-0.08" y="-1" relative="1" as="geometry">
            <mxPoint as="offset" />
          </mxGeometry>
        </mxCell>
        <mxCell id="NyRurbZEW1F-XB1ejXOH-3" value="是否首单?" style="rhombus;whiteSpace=wrap;html=1;" vertex="1" parent="1">
          <mxGeometry x="710" y="170" width="80" height="80" as="geometry" />
        </mxCell>
        <mxCell id="NyRurbZEW1F-XB1ejXOH-8" style="edgeStyle=orthogonalEdgeStyle;rounded=0;orthogonalLoop=1;jettySize=auto;html=1;exitX=0.5;exitY=1;exitDx=0;exitDy=0;entryX=0.5;entryY=0;entryDx=0;entryDy=0;" edge="1" parent="1" source="NyRurbZEW1F-XB1ejXOH-5" target="NyRurbZEW1F-XB1ejXOH-7">
          <mxGeometry relative="1" as="geometry" />
        </mxCell>
        <mxCell id="NyRurbZEW1F-XB1ejXOH-5" value="返利计算" style="rounded=1;whiteSpace=wrap;html=1;" vertex="1" parent="1">
          <mxGeometry x="690" y="300" width="120" height="60" as="geometry" />
        </mxCell>
        <mxCell id="NyRurbZEW1F-XB1ejXOH-7" value="根据返利情况，拆成多个单" style="rounded=1;whiteSpace=wrap;html=1;" vertex="1" parent="1">
          <mxGeometry x="690" y="430" width="120" height="60" as="geometry" />
        </mxCell>
        <mxCell id="NyRurbZEW1F-XB1ejXOH-9" value="mq" style="shape=cylinder3;whiteSpace=wrap;html=1;boundedLbl=1;backgroundOutline=1;size=15;" vertex="1" parent="1">
          <mxGeometry x="720" y="540" width="60" height="80" as="geometry" />
        </mxCell>
        <mxCell id="NyRurbZEW1F-XB1ejXOH-11" style="edgeStyle=orthogonalEdgeStyle;rounded=0;orthogonalLoop=1;jettySize=auto;html=1;exitX=0.5;exitY=1;exitDx=0;exitDy=0;entryX=0.5;entryY=0;entryDx=0;entryDy=0;entryPerimeter=0;" edge="1" parent="1" source="NyRurbZEW1F-XB1ejXOH-7" target="NyRurbZEW1F-XB1ejXOH-9">
          <mxGeometry relative="1" as="geometry" />
        </mxCell>
        <mxCell id="NyRurbZEW1F-XB1ejXOH-10" value="topic:miyuan-order-commission-result-topic" style="text;html=1;align=center;verticalAlign=middle;whiteSpace=wrap;rounded=0;" vertex="1" parent="1">
          <mxGeometry x="790" y="567.5" width="260" height="25" as="geometry" />
        </mxCell>
        <mxCell id="NyRurbZEW1F-XB1ejXOH-16" value="主流程" style="text;html=1;align=center;verticalAlign=middle;whiteSpace=wrap;rounded=0;" vertex="1" parent="1">
          <mxGeometry x="1000" y="40" width="60" height="30" as="geometry" />
        </mxCell>
        <mxCell id="NyRurbZEW1F-XB1ejXOH-20" style="edgeStyle=orthogonalEdgeStyle;rounded=0;orthogonalLoop=1;jettySize=auto;html=1;exitX=0.5;exitY=1;exitDx=0;exitDy=0;" edge="1" parent="1" source="NyRurbZEW1F-XB1ejXOH-17" target="NyRurbZEW1F-XB1ejXOH-18">
          <mxGeometry relative="1" as="geometry" />
        </mxCell>
        <mxCell id="NyRurbZEW1F-XB1ejXOH-17" value="根据channel获取税率" style="rounded=1;whiteSpace=wrap;html=1;" vertex="1" parent="1">
          <mxGeometry x="1280" y="50" width="120" height="60" as="geometry" />
        </mxCell>
        <mxCell id="NyRurbZEW1F-XB1ejXOH-21" style="edgeStyle=orthogonalEdgeStyle;rounded=0;orthogonalLoop=1;jettySize=auto;html=1;exitX=0.5;exitY=1;exitDx=0;exitDy=0;entryX=0.5;entryY=0;entryDx=0;entryDy=0;" edge="1" parent="1" source="NyRurbZEW1F-XB1ejXOH-18" target="NyRurbZEW1F-XB1ejXOH-19">
          <mxGeometry relative="1" as="geometry" />
        </mxCell>
        <mxCell id="NyRurbZEW1F-XB1ejXOH-18" value="获取用户的关系，(上下级)" style="rounded=1;whiteSpace=wrap;html=1;" vertex="1" parent="1">
          <mxGeometry x="1280" y="140" width="120" height="60" as="geometry" />
        </mxCell>
        <mxCell id="NyRurbZEW1F-XB1ejXOH-23" style="edgeStyle=orthogonalEdgeStyle;rounded=0;orthogonalLoop=1;jettySize=auto;html=1;exitX=0.5;exitY=1;exitDx=0;exitDy=0;" edge="1" parent="1" source="NyRurbZEW1F-XB1ejXOH-19" target="NyRurbZEW1F-XB1ejXOH-22">
          <mxGeometry relative="1" as="geometry" />
        </mxCell>
        <mxCell id="NyRurbZEW1F-XB1ejXOH-19" value="根据关系链获取各层级分佣比率" style="rounded=1;whiteSpace=wrap;html=1;" vertex="1" parent="1">
          <mxGeometry x="1280" y="230" width="120" height="60" as="geometry" />
        </mxCell>
        <mxCell id="NyRurbZEW1F-XB1ejXOH-25" value="" style="edgeStyle=orthogonalEdgeStyle;rounded=0;orthogonalLoop=1;jettySize=auto;html=1;" edge="1" parent="1" source="NyRurbZEW1F-XB1ejXOH-22" target="NyRurbZEW1F-XB1ejXOH-24">
          <mxGeometry relative="1" as="geometry" />
        </mxCell>
        <mxCell id="NyRurbZEW1F-XB1ejXOH-22" value="计算返利单,(vip1,zy1,jl1)" style="rounded=1;whiteSpace=wrap;html=1;" vertex="1" parent="1">
          <mxGeometry x="1280" y="330" width="120" height="60" as="geometry" />
        </mxCell>
        <mxCell id="NyRurbZEW1F-XB1ejXOH-27" value="" style="edgeStyle=orthogonalEdgeStyle;rounded=0;orthogonalLoop=1;jettySize=auto;html=1;" edge="1" parent="1" source="NyRurbZEW1F-XB1ejXOH-24" target="NyRurbZEW1F-XB1ejXOH-26">
          <mxGeometry relative="1" as="geometry" />
        </mxCell>
        <mxCell id="NyRurbZEW1F-XB1ejXOH-24" value="计算任务奖励,(非vip1,zy1,jl1)" style="rounded=1;whiteSpace=wrap;html=1;" vertex="1" parent="1">
          <mxGeometry x="1280" y="420" width="120" height="60" as="geometry" />
        </mxCell>
        <mxCell id="NyRurbZEW1F-XB1ejXOH-30" style="edgeStyle=orthogonalEdgeStyle;rounded=0;orthogonalLoop=1;jettySize=auto;html=1;exitX=1;exitY=0.5;exitDx=0;exitDy=0;entryX=0;entryY=0.5;entryDx=0;entryDy=0;" edge="1" parent="1" source="NyRurbZEW1F-XB1ejXOH-26" target="NyRurbZEW1F-XB1ejXOH-29">
          <mxGeometry relative="1" as="geometry" />
        </mxCell>
        <mxCell id="NyRurbZEW1F-XB1ejXOH-26" value="计算puls奖励单" style="rounded=1;whiteSpace=wrap;html=1;" vertex="1" parent="1">
          <mxGeometry x="1280" y="520" width="120" height="60" as="geometry" />
        </mxCell>
        <mxCell id="NyRurbZEW1F-XB1ejXOH-32" value="" style="edgeStyle=orthogonalEdgeStyle;rounded=0;orthogonalLoop=1;jettySize=auto;html=1;" edge="1" parent="1" source="NyRurbZEW1F-XB1ejXOH-29" target="NyRurbZEW1F-XB1ejXOH-31">
          <mxGeometry relative="1" as="geometry" />
        </mxCell>
        <mxCell id="NyRurbZEW1F-XB1ejXOH-29" value="拿到计算后的订单信息，进行拆单" style="rounded=1;whiteSpace=wrap;html=1;" vertex="1" parent="1">
          <mxGeometry x="1510" y="50" width="120" height="60" as="geometry" />
        </mxCell>
        <mxCell id="NyRurbZEW1F-XB1ejXOH-34" value="" style="edgeStyle=orthogonalEdgeStyle;rounded=0;orthogonalLoop=1;jettySize=auto;html=1;" edge="1" parent="1" source="NyRurbZEW1F-XB1ejXOH-31" target="NyRurbZEW1F-XB1ejXOH-33">
          <mxGeometry relative="1" as="geometry" />
        </mxCell>
        <mxCell id="NyRurbZEW1F-XB1ejXOH-31" value="把各个返利人员，组装成订单" style="rounded=1;whiteSpace=wrap;html=1;" vertex="1" parent="1">
          <mxGeometry x="1510" y="150" width="120" height="60" as="geometry" />
        </mxCell>
        <mxCell id="NyRurbZEW1F-XB1ejXOH-33" value="推送消息，到拆单消费处理类" style="rounded=1;whiteSpace=wrap;html=1;" vertex="1" parent="1">
          <mxGeometry x="1510" y="260" width="120" height="60" as="geometry" />
        </mxCell>
        <mxCell id="NyRurbZEW1F-XB1ejXOH-35" value="mq" style="shape=cylinder3;whiteSpace=wrap;html=1;boundedLbl=1;backgroundOutline=1;size=15;" vertex="1" parent="1">
          <mxGeometry x="1540" y="360" width="60" height="80" as="geometry" />
        </mxCell>
        <mxCell id="NyRurbZEW1F-XB1ejXOH-36" style="edgeStyle=orthogonalEdgeStyle;rounded=0;orthogonalLoop=1;jettySize=auto;html=1;exitX=0.5;exitY=1;exitDx=0;exitDy=0;entryX=0.5;entryY=0;entryDx=0;entryDy=0;entryPerimeter=0;" edge="1" parent="1" source="NyRurbZEW1F-XB1ejXOH-33" target="NyRurbZEW1F-XB1ejXOH-35">
          <mxGeometry relative="1" as="geometry" />
        </mxCell>
        <mxCell id="NyRurbZEW1F-XB1ejXOH-37" value="topic:miyuan-order-commission-result-topic" style="text;html=1;align=center;verticalAlign=middle;whiteSpace=wrap;rounded=0;" vertex="1" parent="1">
          <mxGeometry x="1620" y="385" width="310" height="25" as="geometry" />
        </mxCell>
        <mxCell id="NyRurbZEW1F-XB1ejXOH-39" value="算佣金" style="text;html=1;align=center;verticalAlign=middle;whiteSpace=wrap;rounded=0;" vertex="1" parent="1">
          <mxGeometry x="1200" y="50" width="60" height="30" as="geometry" />
        </mxCell>
        <mxCell id="NyRurbZEW1F-XB1ejXOH-40" value="根据佣金拆成多个订单" style="text;html=1;align=center;verticalAlign=middle;whiteSpace=wrap;rounded=0;" vertex="1" parent="1">
          <mxGeometry x="1670" y="60" width="140" height="40" as="geometry" />
        </mxCell>
      </root>
    </mxGraphModel>
  </diagram>
</mxfile>
